<?xml version="1.0" encoding="UTF-8" standalone="no"?>
<!-- Created with Inkscape (http://www.inkscape.org/) -->

<svg
   xmlns:dc="http://purl.org/dc/elements/1.1/"
   xmlns:cc="http://creativecommons.org/ns#"
   xmlns:rdf="http://www.w3.org/1999/02/22-rdf-syntax-ns#"
   xmlns:svg="http://www.w3.org/2000/svg"
   xmlns="http://www.w3.org/2000/svg"
   xmlns:sodipodi="http://sodipodi.sourceforge.net/DTD/sodipodi-0.dtd"
   xmlns:inkscape="http://www.inkscape.org/namespaces/inkscape"
   width="64"
   height="64"
   id="svg3344"
   version="1.1"
   inkscape:version="0.91 r13725"
   viewBox="0 0 64 64"
   sodipodi:docname="cloud.svg">
  <defs
     id="defs3346" />
  <sodipodi:namedview
     id="base"
     pagecolor="#ffffff"
     bordercolor="#666666"
     borderopacity="1.0"
     inkscape:pageopacity="0.0"
     inkscape:pageshadow="2"
     inkscape:zoom="5.5"
     inkscape:cx="5.1818182"
     inkscape:cy="32"
     inkscape:current-layer="layer1"
     showgrid="true"
     inkscape:document-units="px"
     inkscape:grid-bbox="true"
     inkscape:window-width="1600"
     inkscape:window-height="837"
     inkscape:window-x="-8"
     inkscape:window-y="-8"
     inkscape:window-maximized="1" />
  <metadata
     id="metadata3349">
    <rdf:RDF>
      <cc:Work
         rdf:about="">
        <dc:format>image/svg+xml</dc:format>
        <dc:type
           rdf:resource="http://purl.org/dc/dcmitype/StillImage" />
        <dc:title></dc:title>
      </cc:Work>
    </rdf:RDF>
  </metadata>
  <g
     id="layer1"
     inkscape:label="Layer 1"
     inkscape:groupmode="layer">
    <path
       style="fill:#c4c4c4;fill-opacity:1;stroke:#c4c4c4;stroke-width:0.88366038;stroke-opacity:1"
       d="M 25.637074,5.8515625 A 14.694534,14.149078 0 0 0 11.096058,18.070312 14.7245,12.269953 0 0 0 0.91246436,29.726562 14.7245,12.269953 0 0 0 13.074574,41.796875 14.694534,14.149078 0 0 0 27.271839,52.330078 14.694534,14.149078 0 0 0 38.04137,47.783203 14.694534,14.149078 0 0 0 48.363636,51.876953 14.694534,14.149078 0 0 0 63.058948,37.726562 14.694534,14.149078 0 0 0 60.20348,29.376953 14.694534,14.149078 0 0 0 62.148792,22.363281 14.694534,14.149078 0 0 0 47.455433,8.2148438 14.694534,14.149078 0 0 0 37.63512,11.861328 14.694534,14.149078 0 0 0 25.637074,5.8515625 Z"
       id="path4158-5"
       inkscape:connector-curvature="0" />
  </g>
</svg>
